:FULLY-SPECIFIED
:FORCE-ALL-JOINTS-BE-3DOF
:DEGREES
17
root 7.78813 15.8671 -34.3548 7.42221 -2.46522 -5.08674
lfemur -43.137 7.76763 -14.4958
ltibia 41.335 -0 0
lfoot -8.22078 7.77836 -0.0389639
ltoes -9.0602 0 0
rfemur 4.65275 5.1209 29.5955
rtibia 12.4876 -0 0
rfoot -0.242258 0.971663 -0.0935809
rtoes -11.2584 0 0
lowerback -6.06189 0.670683 1.84366
upperback -1.39806 0.694088 3.16602
thorax 1.9347 0.355641 2.3053
lowerneck -19.524 -5.03278 -13.0654
upperneck 14.2869 -6.34739 16.2433
head 8.6586 -2.15491 6.93719
lclavicle -3.14018e-14 -4.8901e-14 0
lhumerus -39.6866 -4.25558 88.3742
lradius 25.6883 -0 0
lwrist 4.46459 0 0
lhand -5.23602 -20.7235 0.24067
lfingers 7.12502 -0 0
lthumb 20.5398 7.89756 0.13237
rclavicle -3.14018e-14 -4.8901e-14 0
rhumerus -41.3525 18.7438 -87.8219
rradius 56.9072 -0 0
rwrist -28.1655 0 0
rhand -32.3529 -29.4791 -0.0491146
rfingers 7.12502 -0 0
rthumb -5.58936 -59.3826 -0.0476756
18
root 7.80827 15.8592 -34.2062 7.45193 -2.7742 -5.20467
lfemur -43.3381 7.88195 -14.3452
ltibia 41.1251 -0 0
lfoot -7.69591 7.73153 -0.0393342
ltoes -8.83235 0 0
rfemur 5.8477 5.15884 29.5593
rtibia 11.5305 -0 0
rfoot -0.260838 1.05238 -0.101235
rtoes -12.181 0 0
lowerback -6.20608 0.711505 1.91756
upperback -1.38791 0.735906 3.21602
thorax 2.02407 0.376836 2.32157
lowerneck -19.5947 -5.0211 -13.0433
upperneck 14.336 -6.32395 16.1881
head 8.68043 -2.1445 6.91823
lclavicle -3.14018e-14 -4.8901e-14 0
lhumerus -39.9981 -4.35328 88.5517
lradius 25.5475 -0 0
lwrist 4.23199 0 0
lhand -4.57448 -20.534 0.246024
lfingers 7.12502 -0 0
lthumb 21.1742 8.00737 0.135234
rclavicle -3.14018e-14 -4.8901e-14 0
rhumerus -41.5687 18.8427 -88.1304
rradius 56.9673 -0 0
rwrist -28.1329 0 0
rhand -32.2834 -29.7851 -0.0507013
rfingers 7.12502 -0 0
rthumb -5.52224 -59.6903 -0.0492155
19
root 7.82841 15.8512 -34.0576 7.48201 -3.08605 -5.32238
lfemur -43.5358 7.99624 -14.1957
ltibia 40.9114 -0 0
lfoot -7.16869 7.68464 -0.0392861
ltoes -8.60163 0 0
rfemur 7.04606 5.19765 29.5215
rtibia 10.5749 -0 0
rfoot -0.282298 1.13145 -0.10857
rtoes -13.1098 0 0
lowerback -6.35104 0.752472 1.99091
upperback -1.37767 0.777643 3.26627
thorax 2.11397 0.397966 2.33838
lowerneck -19.6663 -5.00915 -13.0209
upperneck 14.3864 -6.30005 16.1318
head 8.70273 -2.13392 6.89892
lclavicle -3.14018e-14 -4.8901e-14 0
lhumerus -40.3099 -4.45213 88.7309
lradius 25.4059 -0 0
lwrist 3.9974 0 0
lhand -3.90926 -20.3434 0.249187
lfingers 7.12502 -0 0
lthumb 21.8121 8.11769 0.13688
rclavicle -3.14018e-14 -4.8901e-14 0
rhumerus -41.7875 18.9403 -88.4418
rradius 57.025 -0 0
rwrist -28.099 0 0
rhand -32.2131 -30.0922 -0.0519004
rfingers 7.12502 -0 0
rthumb -5.4544 -59.999 -0.0503794
20
root 7.84854 15.8433 -33.909 7.51226 -3.39985 -5.43923
lfemur -43.7288 8.10984 -14.0483
ltibia 40.6944 -0 0
lfoot -6.64118 7.63788 -0.0388208
ltoes -8.36862 0 0
rfemur 8.24281 5.23724 29.4819
rtibia 9.62567 -0 0
rfoot -0.307046 1.2082 -0.115494
rtoes -14.0414 0 0
lowerback -6.49623 0.79338 2.0633
upperback -1.36739 0.81909 3.31657
thorax 2.20407 0.418924 2.35574
lowerneck -19.7387 -4.99693 -12.9981
upperneck 14.4379 -6.27572 16.0745
head 8.72547 -2.12319 6.87929
lclavicle -3.14018e-14 -4.8901e-14 0
lhumerus -40.6206 -4.55205 88.9113
lradius 25.2641 -0 0
lwrist 3.76159 0 0
lhand -3.24284 -20.1527 0.250121
lfingers 7.12502 -0 0
lthumb 22.4511 8.22807 0.137292
rclavicle -3.14018e-14 -4.8901e-14 0
rhumerus -42.0081 19.0361 -88.755
rradius 57.0796 -0 0
rwrist -28.0638 0 0
rhand -32.1423 -30.399 -0.0526977
rfingers 7.12502 -0 0
rthumb -5.38603 -60.3075 -0.0511533
21
root 7.86868 15.8354 -33.7604 7.54248 -3.71464 -5.55461
lfemur -43.9154 8.22208 -13.9038
ltibia 40.4744 -0 0
lfoot -6.11542 7.59148 -0.0379464
ltoes -8.13389 0 0
rfemur 9.43289 5.2775 29.4403
rtibia 8.68753 -0 0
rfoot -0.335495 1.28196 -0.121915
rtoes -14.9727 0 0
lowerback -6.64112 0.834025 2.13429
upperback -1.3571 0.860039 3.36673
thorax 2.29404 0.439602 2.37368
lowerneck -19.8117 -4.98446 -12.975
upperneck 14.4906 -6.25099 16.0163
head 8.74862 -2.11233 6.85936
lclavicle -3.14018e-14 -4.8901e-14 0
lhumerus -40.9288 -4.65294 89.0921
lradius 25.1226 -0 0
lwrist 3.52529 0 0
lhand -2.57772 -19.9626 0.248823
lfingers 7.12502 -0 0
lthumb 23.089 8.33809 0.136468
rclavicle -3.14018e-14 -4.8901e-14 0
rhumerus -42.2299 19.1297 -89.0689
rradius 57.1367 -0 0
rwrist -28.0272 0 0
rhand -32.0711 -30.7043 -0.0530841
rfingers 7.12502 -0 0
rthumb -5.31732 -60.6146 -0.0515285
22
root 7.88882 15.8275 -33.6119 7.57246 -4.02948 -5.66787
lfemur -44.0942 8.33227 -13.763
ltibia 40.2517 -0 0
lfoot -5.59347 7.54565 -0.0366786
ltoes -7.89802 0 0
rfemur 10.6113 5.31834 29.3964
rtibia 7.76526 -0 0
rfoot -0.368053 1.35206 -0.127741
rtoes -15.9002 0 0
lowerback -6.78518 0.874197 2.20348
upperback -1.34685 0.900281 3.41656
thorax 2.38355 0.459893 2.39219
lowerneck -19.8852 -4.97175 -12.9517
upperneck 14.5445 -6.22591 15.9572
head 8.77217 -2.10136 6.83918
lclavicle -3.14018e-14 -4.8901e-14 0
lhumerus -41.2331 -4.75475 89.2728
lradius 24.982 -0 0
lwrist 3.28927 0 0
lhand -1.91635 -19.7737 0.245327
lfingers 7.12502 -0 0
lthumb 23.7232 8.44728 0.134428
rclavicle -3.14018e-14 -4.8901e-14 0
rhumerus -42.4522 19.2205 -89.3825
rradius 57.1769 -0 0
rwrist -27.9891 0 0
rhand -31.9998 -31.0069 -0.0530559
rfingers 7.12502 -0 0
rthumb -5.24847 -60.9189 -0.0515014
23
root 7.90896 15.8196 -33.4633 7.60197 -4.34345 -5.77839
lfemur -44.2637 8.43973 -13.6266
ltibia 40.0267 -0 0
lfoot -5.07741 7.5006 -0.0350398
ltoes -7.66158 0 0
rfemur 11.773 5.35967 29.3499
rtibia 6.86363 -0 0
rfoot -0.40513 1.41785 -0.13288
rtoes -16.8209 0 0
lowerback -6.92788 0.913685 2.27043
upperback -1.33667 0.939606 3.46585
thorax 2.47229 0.47969 2.41129
lowerneck -19.9589 -4.95882 -12.9281
upperneck 14.5996 -6.20049 15.8973
head 8.79609 -2.0903 6.81875
lclavicle -3.14018e-14 -4.8901e-14 0
lhumerus -41.5319 -4.85743 89.4527
lradius 24.8427 -0 0
lwrist 3.05426 0 0
lhand -1.26123 -19.587 0.239694
lfingers 7.12502 -0 0
lthumb 24.3515 8.55521 0.13121
rclavicle -3.14018e-14 -4.8901e-14 0
rhumerus -42.6741 19.308 -89.6947
rradius 57.2181 -0 0
rwrist -27.9494 0 0
rhand -31.9286 -31.3055 -0.0526147
rfingers 7.12502 -0 0
rthumb -5.17967 -61.2192 -0.0510734
24
root 7.92909 15.8117 -33.3147 7.63079 -4.65561 -5.88553
lfemur -44.4226 8.54373 -13.4956
ltibia 39.7997 -0 0
lfoot -4.56927 7.45653 -0.0330594
ltoes -7.42514 0 0
rfemur 12.9129 5.4014 29.3006
rtibia 5.98741 -0 0
rfoot -0.447136 1.47865 -0.137243
rtoes -17.7314 0 0
lowerback -7.06868 0.952273 2.33474
upperback -1.32661 0.977806 3.51442
thorax 2.5599 0.498885 2.43099
lowerneck -20.0326 -4.94567 -12.9044
upperneck 14.6557 -6.17479 15.8368
head 8.82036 -2.07918 6.79812
lclavicle -3.14018e-14 -4.8901e-14 0
lhumerus -41.8238 -4.96096 89.6311
lradius 24.7053 -0 0
lwrist 2.82101 0 0
lhand -0.614835 -19.4031 0.232025
lfingers 7.12502 -0 0
lthumb 24.9714 8.66143 0.126868
rclavicle -3.14018e-14 -4.8901e-14 0
rhumerus -42.8951 19.3919 -90.0044
rradius 57.2535 -0 0
rwrist -27.9081 0 0
rhand -31.8575 -31.5988 -0.0517671
rfingers 7.12502 -0 0
rthumb -5.11111 -61.5142 -0.0502511
25
root 7.94923 15.8037 -33.1661 7.65868 -4.96502 -5.98864
lfemur -44.5693 8.64358 -13.3706
ltibia 39.5711 -0 0
lfoot -4.07113 7.41367 -0.0307733
ltoes -7.18928 0 0
rfemur 14.0259 5.44344 29.2481
rtibia 5.14137 -0 0
rfoot -0.49448 1.53379 -0.140739
rtoes -18.6284 0 0
lowerback -7.20706 0.989742 2.39598
upperback -1.31671 1.01467 3.56207
thorax 2.64607 0.517373 2.4513
lowerneck -20.1063 -4.93231 -12.8806
upperneck 14.713 -6.14884 15.7756
head 8.84497 -2.068 6.77732
lclavicle -3.14018e-14 -4.8901e-14 0
lhumerus -42.1073 -5.06531 89.8075
lradius 24.5704 -0 0
lwrist 2.59028 0 0
lhand 0.0203552 -19.2228 0.222446
lfingers 7.12502 -0 0
lthumb 25.5806 8.76551 0.121477
rclavicle -3.14018e-14 -4.8901e-14 0
rhumerus -43.1142 19.4717 -90.3105
rradius 57.2823 -0 0
rwrist -27.8652 0 0
rhand -31.787 -31.8856 -0.050525
rfingers 7.12502 -0 0
rthumb -5.04299 -61.8027 -0.0490459
26
root 7.96937 15.7958 -33.0175 7.68537 -5.27074 -6.08707
lfemur -44.7023 8.73855 -13.2525
ltibia 39.3411 -0 0
lfoot -3.58504 7.37221 -0.0282235
ltoes -6.95457 0 0
rfemur 15.1072 5.48568 29.1923
rtibia 4.33028 -0 0
rfoot -0.547571 1.58261 -0.143281
rtoes -19.5087 0 0
lowerback -7.34249 1.02587 2.45374
upperback -1.30701 1.05 3.60861
thorax 2.73047 0.535045 2.47222
lowerneck -20.1798 -4.91877 -12.8566
upperneck 14.7713 -6.12266 15.7138
head 8.86988 -2.0568 6.75636
lclavicle -3.14018e-14 -4.8901e-14 0
lhumerus -42.3809 -5.17049 89.981
lradius 24.4384 -0 0
lwrist 2.36282 0 0
lhand 0.641864 -19.0469 0.211117
lfingers 7.12502 -0 0
lthumb 26.1767 8.86699 0.115127
rclavicle -3.14018e-14 -4.8901e-14 0
rhumerus -43.3309 19.5469 -90.6119
rradius 57.3039 -0 0
rwrist -27.8205 0 0
rhand -31.7171 -32.1646 -0.0489052
rfingers 7.12502 -0 0
rthumb -4.9755 -62.0834 -0.0474741
